solid CATIA STL
  facet normal  0.000000e+000  0.000000e+000  1.000000e+000
    outer loop
      vertex  3.500000e+001 -2.500000e+001  3.800000e+001
      vertex  3.399138e+001 -2.399138e+001  3.800000e+001
      vertex -3.500000e+001 -2.500000e+001  3.800000e+001
    endloop
  endfacet
  facet normal  0.000000e+000  0.000000e+000  1.000000e+000
    outer loop
      vertex -3.500000e+001 -2.500000e+001  3.800000e+001
      vertex  3.399138e+001 -2.399138e+001  3.800000e+001
      vertex -3.399138e+001 -2.399138e+001  3.800000e+001
    endloop
  endfacet
  facet normal  0.000000e+000  0.000000e+000  1.000000e+000
    outer loop
      vertex -3.500000e+001 -2.500000e+001  3.800000e+001
      vertex -3.399138e+001 -2.399138e+001  3.800000e+001
      vertex -3.500000e+001  2.500000e+001  3.800000e+001
    endloop
  endfacet
  facet normal  0.000000e+000  0.000000e+000  1.000000e+000
    outer loop
      vertex -3.500000e+001  2.500000e+001  3.800000e+001
      vertex -3.399138e+001 -2.399138e+001  3.800000e+001
      vertex -3.399138e+001  2.399138e+001  3.800000e+001
    endloop
  endfacet
  facet normal  0.000000e+000  -0.000000e+000  1.000000e+000
    outer loop
      vertex -3.500000e+001  2.500000e+001  3.800000e+001
      vertex -3.399138e+001  2.399138e+001  3.800000e+001
      vertex  3.500000e+001  2.500000e+001  3.800000e+001
    endloop
  endfacet
  facet normal  0.000000e+000  0.000000e+000  1.000000e+000
    outer loop
      vertex  3.500000e+001  2.500000e+001  3.800000e+001
      vertex -3.399138e+001  2.399138e+001  3.800000e+001
      vertex  3.399138e+001  2.399138e+001  3.800000e+001
    endloop
  endfacet
  facet normal  -0.000000e+000  0.000000e+000  1.000000e+000
    outer loop
      vertex  3.500000e+001  2.500000e+001  3.800000e+001
      vertex  3.399138e+001  2.399138e+001  3.800000e+001
      vertex  3.500000e+001 -2.500000e+001  3.800000e+001
    endloop
  endfacet
  facet normal  0.000000e+000  0.000000e+000  1.000000e+000
    outer loop
      vertex  3.500000e+001 -2.500000e+001  3.800000e+001
      vertex  3.399138e+001  2.399138e+001  3.800000e+001
      vertex  3.399138e+001 -2.399138e+001  3.800000e+001
    endloop
  endfacet
  facet normal  9.914543e-001  0.000000e+000  1.304545e-001
    outer loop
      vertex -2.912296e+001  1.912296e+001  1.000000e+000
      vertex -3.399138e+001  2.399138e+001  3.800000e+001
      vertex -2.912296e+001 -1.912296e+001  1.000000e+000
    endloop
  endfacet
  facet normal  9.914543e-001  0.000000e+000  1.304545e-001
    outer loop
      vertex -2.912296e+001 -1.912296e+001  1.000000e+000
      vertex -3.399138e+001  2.399138e+001  3.800000e+001
      vertex -3.399138e+001 -2.399138e+001  3.800000e+001
    endloop
  endfacet
  facet normal  0.000000e+000  9.914542e-001  1.304545e-001
    outer loop
      vertex  3.399138e+001 -2.399138e+001  3.800000e+001
      vertex  2.912296e+001 -1.912296e+001  1.000000e+000
      vertex -3.399138e+001 -2.399138e+001  3.800000e+001
    endloop
  endfacet
  facet normal  0.000000e+000  9.914544e-001  1.304545e-001
    outer loop
      vertex -3.399138e+001 -2.399138e+001  3.800000e+001
      vertex  2.912296e+001 -1.912296e+001  1.000000e+000
      vertex -2.912296e+001 -1.912296e+001  1.000000e+000
    endloop
  endfacet
  facet normal -9.914543e-001  0.000000e+000  1.304545e-001
    outer loop
      vertex  3.399138e+001  2.399138e+001  3.800000e+001
      vertex  2.912296e+001  1.912296e+001  1.000000e+000
      vertex  3.399138e+001 -2.399138e+001  3.800000e+001
    endloop
  endfacet
  facet normal -9.914543e-001  0.000000e+000  1.304545e-001
    outer loop
      vertex  3.399138e+001 -2.399138e+001  3.800000e+001
      vertex  2.912296e+001  1.912296e+001  1.000000e+000
      vertex  2.912296e+001 -1.912296e+001  1.000000e+000
    endloop
  endfacet
  facet normal  0.000000e+000 -9.914544e-001  1.304545e-001
    outer loop
      vertex  2.912296e+001  1.912296e+001  1.000000e+000
      vertex  3.399138e+001  2.399138e+001  3.800000e+001
      vertex -2.912296e+001  1.912296e+001  1.000000e+000
    endloop
  endfacet
  facet normal  0.000000e+000 -9.914542e-001  1.304545e-001
    outer loop
      vertex -2.912296e+001  1.912296e+001  1.000000e+000
      vertex  3.399138e+001  2.399138e+001  3.800000e+001
      vertex -3.399138e+001  2.399138e+001  3.800000e+001
    endloop
  endfacet
  facet normal  0.000000e+000  0.000000e+000  1.000000e+000
    outer loop
      vertex -2.912296e+001  1.912296e+001  1.000000e+000
      vertex -2.912296e+001 -1.912296e+001  1.000000e+000
      vertex  2.912296e+001  1.912296e+001  1.000000e+000
    endloop
  endfacet
  facet normal  0.000000e+000  0.000000e+000  1.000000e+000
    outer loop
      vertex  2.912296e+001  1.912296e+001  1.000000e+000
      vertex -2.912296e+001 -1.912296e+001  1.000000e+000
      vertex  2.912296e+001 -1.912296e+001  1.000000e+000
    endloop
  endfacet
  facet normal  0.000000e+000  9.914542e-001 -1.304545e-001
    outer loop
      vertex  3.500000e+001  2.500000e+001  3.800000e+001
      vertex  3.000000e+001  2.000000e+001  3.552714e-014
      vertex -3.500000e+001  2.500000e+001  3.800000e+001
    endloop
  endfacet
  facet normal  0.000000e+000  9.914544e-001 -1.304545e-001
    outer loop
      vertex -3.500000e+001  2.500000e+001  3.800000e+001
      vertex  3.000000e+001  2.000000e+001  3.552714e-014
      vertex -3.000000e+001  2.000000e+001  0.000000e+000
    endloop
  endfacet
  facet normal  0.000000e+000 -9.914544e-001 -1.304545e-001
    outer loop
      vertex  3.000000e+001 -2.000000e+001  3.552714e-014
      vertex  3.500000e+001 -2.500000e+001  3.800000e+001
      vertex -3.000000e+001 -2.000000e+001  0.000000e+000
    endloop
  endfacet
  facet normal  0.000000e+000 -9.914542e-001 -1.304545e-001
    outer loop
      vertex -3.000000e+001 -2.000000e+001  0.000000e+000
      vertex  3.500000e+001 -2.500000e+001  3.800000e+001
      vertex -3.500000e+001 -2.500000e+001  3.800000e+001
    endloop
  endfacet
  facet normal -9.914543e-001  0.000000e+000 -1.304545e-001
    outer loop
      vertex -3.500000e+001  2.500000e+001  3.800000e+001
      vertex -3.000000e+001  2.000000e+001  0.000000e+000
      vertex -3.500000e+001 -2.500000e+001  3.800000e+001
    endloop
  endfacet
  facet normal -9.914542e-001  0.000000e+000 -1.304545e-001
    outer loop
      vertex -3.500000e+001 -2.500000e+001  3.800000e+001
      vertex -3.000000e+001  2.000000e+001  0.000000e+000
      vertex -3.000000e+001 -2.000000e+001  0.000000e+000
    endloop
  endfacet
  facet normal  9.914542e-001  0.000000e+000 -1.304545e-001
    outer loop
      vertex  3.000000e+001  2.000000e+001  3.552714e-014
      vertex  3.500000e+001  2.500000e+001  3.800000e+001
      vertex  3.000000e+001 -2.000000e+001  3.552714e-014
    endloop
  endfacet
  facet normal  9.914543e-001  0.000000e+000 -1.304545e-001
    outer loop
      vertex  3.000000e+001 -2.000000e+001  3.552714e-014
      vertex  3.500000e+001  2.500000e+001  3.800000e+001
      vertex  3.500000e+001 -2.500000e+001  3.800000e+001
    endloop
  endfacet
  facet normal  5.921190e-016  0.000000e+000 -1.000000e+000
    outer loop
      vertex  3.000000e+001 -2.000000e+001  3.552714e-014
      vertex -3.000000e+001 -2.000000e+001  0.000000e+000
      vertex  3.000000e+001  2.000000e+001  3.552714e-014
    endloop
  endfacet
  facet normal  5.921190e-016  0.000000e+000 -1.000000e+000
    outer loop
      vertex  3.000000e+001  2.000000e+001  3.552714e-014
      vertex -3.000000e+001 -2.000000e+001  0.000000e+000
      vertex -3.000000e+001  2.000000e+001  0.000000e+000
    endloop
  endfacet
endsolid CATIA STL
